<svg width="66" height="59" viewBox="0 0 66 59" fill="none" xmlns="http://www.w3.org/2000/svg">
<path d="M61.8054 47.625H57.75V22.25C57.75 21.2886 57.3154 20.3665 56.5418 19.6867C55.7682 19.0069 54.719 18.625 53.625 18.625H42.2813C42.0078 18.625 41.7455 18.7205 41.5521 18.8904C41.3587 19.0604 41.25 19.2909 41.25 19.5312V47.625H37.125V7.84286C37.1318 7.27823 36.9924 6.71962 36.7173 6.20934C36.4421 5.69906 36.0385 5.25048 35.5369 4.89755C34.8532 4.4291 34.0189 4.16187 33.1525 4.13381C32.2861 4.10575 31.4317 4.31828 30.7106 4.74122L10.0856 16.8125C9.51984 17.1442 9.05617 17.5937 8.73591 18.1211C8.41564 18.6484 8.24872 19.2371 8.25002 19.8348V47.625H4.19462C3.66164 47.6181 3.14544 47.7888 2.74988 48.1028C2.35431 48.4167 2.10872 48.8507 2.06252 49.3174C2.04378 49.5653 2.08326 49.814 2.17849 50.0479C2.27372 50.2819 2.42267 50.4961 2.61609 50.6774C2.80951 50.8586 3.04327 51.003 3.30284 51.1015C3.56242 51.2 3.84227 51.2505 4.12502 51.25H61.875C62.1578 51.2505 62.4376 51.2 62.6972 51.1015C62.9568 51.003 63.1905 50.8586 63.3839 50.6774C63.5774 50.4961 63.7263 50.2819 63.8215 50.0479C63.9168 49.814 63.9562 49.5653 63.9375 49.3174C63.8913 48.8507 63.6457 48.4167 63.2502 48.1028C62.8546 47.7888 62.3384 47.6181 61.8054 47.625ZM19.5938 42.1875C19.5944 42.4359 19.5369 42.6819 19.4248 42.91C19.3127 43.1381 19.1484 43.3435 18.9422 43.5135C18.736 43.6835 18.4922 43.8144 18.2259 43.8981C17.9597 43.9817 17.6767 44.0164 17.3946 44C16.8631 43.9593 16.3689 43.7432 16.0116 43.3951C15.6542 43.047 15.4602 42.5928 15.4688 42.124V38.6236C15.4615 38.1554 15.656 37.7021 16.0131 37.3546C16.3703 37.0071 16.8638 36.7911 17.3946 36.75C17.6767 36.7335 17.9597 36.7682 18.2259 36.8519C18.4922 36.9356 18.736 37.0665 18.9422 37.2364C19.1484 37.4064 19.3127 37.6118 19.4248 37.84C19.5369 38.0681 19.5944 38.314 19.5938 38.5625V42.1875ZM19.5938 29.5C19.5944 29.7484 19.5369 29.9944 19.4248 30.2225C19.3127 30.4506 19.1484 30.656 18.9422 30.826C18.736 30.996 18.4922 31.1269 18.2259 31.2106C17.9597 31.2942 17.6767 31.3289 17.3946 31.3125C16.8634 31.2713 16.3695 31.055 16.0123 30.707C15.655 30.3591 15.4608 29.9052 15.4688 29.4365V25.9361C15.4615 25.4679 15.656 25.0146 16.0131 24.6671C16.3703 24.3196 16.8638 24.1036 17.3946 24.0625C17.6767 24.046 17.9597 24.0807 18.2259 24.1644C18.4922 24.2481 18.736 24.379 18.9422 24.5489C19.1484 24.7189 19.3127 24.9243 19.4248 25.1525C19.5369 25.3806 19.5944 25.6265 19.5938 25.875V29.5ZM29.9063 42.1875C29.9069 42.4359 29.8494 42.6819 29.7373 42.91C29.6252 43.1381 29.4609 43.3435 29.2547 43.5135C29.0485 43.6835 28.8047 43.8144 28.5384 43.8981C28.2722 43.9817 27.9892 44.0164 27.7071 44C27.1765 43.9594 26.6831 43.7439 26.3258 43.3968C25.9686 43.0496 25.7741 42.5966 25.7813 42.1286V38.6236C25.7747 38.1558 25.9694 37.703 26.3265 37.356C26.6837 37.009 27.1768 36.7933 27.7071 36.7522C27.9892 36.7358 28.2722 36.7705 28.5384 36.8542C28.8047 36.9378 29.0485 37.0687 29.2547 37.2387C29.4609 37.4087 29.6252 37.6141 29.7373 37.8422C29.8494 38.0703 29.9069 38.3163 29.9063 38.5647V42.1875ZM29.9063 29.5C29.9069 29.7484 29.8494 29.9944 29.7373 30.2225C29.6252 30.4506 29.4609 30.656 29.2547 30.826C29.0485 30.996 28.8047 31.1269 28.5384 31.2106C28.2722 31.2942 27.9892 31.3289 27.7071 31.3125C27.1768 31.2714 26.6837 31.0557 26.3265 30.7087C25.9694 30.3617 25.7747 29.9089 25.7813 29.4411V25.9361C25.7747 25.4683 25.9694 25.0155 26.3265 24.6685C26.6837 24.3215 27.1768 24.1058 27.7071 24.0647C27.9892 24.0483 28.2722 24.083 28.5384 24.1667C28.8047 24.2503 29.0485 24.3812 29.2547 24.5512C29.4609 24.7212 29.6252 24.9266 29.7373 25.1547C29.8494 25.3828 29.9069 25.6288 29.9063 25.8772V29.5Z" fill="white"/>
</svg>
