<svg width="22" height="23" viewBox="0 0 22 23" fill="none" xmlns="http://www.w3.org/2000/svg">
<path d="M11 2.15625C6.37398 2.15625 2.75 4.36641 2.75 7.1875V15.8125C2.75 18.6336 6.37398 20.8438 11 20.8438C15.626 20.8438 19.25 18.6336 19.25 15.8125V7.1875C19.25 4.36641 15.626 2.15625 11 2.15625ZM17.875 11.5C17.875 12.3643 17.1978 13.2457 16.0179 13.9186C14.6893 14.676 12.907 15.0938 11 15.0938C9.09305 15.0938 7.3107 14.676 5.98211 13.9186C4.80219 13.2457 4.125 12.3643 4.125 11.5V10.005C5.59109 11.3527 8.09789 12.2188 11 12.2188C13.9021 12.2188 16.4089 11.3491 17.875 10.005V11.5ZM16.0179 18.2311C14.6893 18.9885 12.907 19.4062 11 19.4062C9.09305 19.4062 7.3107 18.9885 5.98211 18.2311C4.80219 17.5582 4.125 16.6768 4.125 15.8125V14.3175C5.59109 15.6652 8.09789 16.5312 11 16.5312C13.9021 16.5312 16.4089 15.6616 17.875 14.3175V15.8125C17.875 16.6768 17.1978 17.5582 16.0179 18.2311Z" fill="#EBA632"/>
</svg>
