<svg width="21" height="22" viewBox="0 0 21 22" fill="none" xmlns="http://www.w3.org/2000/svg">
<path d="M9.1875 9.625H11.8125V12.375H9.1875V9.625ZM19.6875 13.0625C19.6875 13.2448 19.6184 13.4197 19.4953 13.5486C19.3722 13.6776 19.2053 13.75 19.0312 13.75H17.7188V17.1875C17.7188 17.5522 17.5805 17.9019 17.3343 18.1598C17.0882 18.4176 16.7543 18.5625 16.4062 18.5625H13.125V19.9375C13.125 20.1198 13.0559 20.2947 12.9328 20.4236C12.8097 20.5526 12.6428 20.625 12.4688 20.625C12.2947 20.625 12.1278 20.5526 12.0047 20.4236C11.8816 20.2947 11.8125 20.1198 11.8125 19.9375V18.5625H9.1875V19.9375C9.1875 20.1198 9.11836 20.2947 8.99529 20.4236C8.87222 20.5526 8.7053 20.625 8.53125 20.625C8.3572 20.625 8.19028 20.5526 8.06721 20.4236C7.94414 20.2947 7.875 20.1198 7.875 19.9375V18.5625H4.59375C4.24565 18.5625 3.91181 18.4176 3.66567 18.1598C3.41953 17.9019 3.28125 17.5522 3.28125 17.1875V13.75H1.96875C1.7947 13.75 1.62778 13.6776 1.50471 13.5486C1.38164 13.4197 1.3125 13.2448 1.3125 13.0625C1.3125 12.8802 1.38164 12.7053 1.50471 12.5764C1.62778 12.4474 1.7947 12.375 1.96875 12.375H3.28125V9.625H1.96875C1.7947 9.625 1.62778 9.55257 1.50471 9.42364C1.38164 9.2947 1.3125 9.11984 1.3125 8.9375C1.3125 8.75516 1.38164 8.5803 1.50471 8.45136C1.62778 8.32243 1.7947 8.25 1.96875 8.25H3.28125V4.8125C3.28125 4.44783 3.41953 4.09809 3.66567 3.84023C3.91181 3.58237 4.24565 3.4375 4.59375 3.4375H7.875V2.0625C7.875 1.88016 7.94414 1.7053 8.06721 1.57636C8.19028 1.44743 8.3572 1.375 8.53125 1.375C8.7053 1.375 8.87222 1.44743 8.99529 1.57636C9.11836 1.7053 9.1875 1.88016 9.1875 2.0625V3.4375H11.8125V2.0625C11.8125 1.88016 11.8816 1.7053 12.0047 1.57636C12.1278 1.44743 12.2947 1.375 12.4688 1.375C12.6428 1.375 12.8097 1.44743 12.9328 1.57636C13.0559 1.7053 13.125 1.88016 13.125 2.0625V3.4375H16.4062C16.7543 3.4375 17.0882 3.58237 17.3343 3.84023C17.5805 4.09809 17.7188 4.44783 17.7188 4.8125V8.25H19.0312C19.2053 8.25 19.3722 8.32243 19.4953 8.45136C19.6184 8.5803 19.6875 8.75516 19.6875 8.9375C19.6875 9.11984 19.6184 9.2947 19.4953 9.42364C19.3722 9.55257 19.2053 9.625 19.0312 9.625H17.7188V12.375H19.0312C19.2053 12.375 19.3722 12.4474 19.4953 12.5764C19.6184 12.7053 19.6875 12.8802 19.6875 13.0625ZM13.125 8.9375C13.125 8.75516 13.0559 8.5803 12.9328 8.45136C12.8097 8.32243 12.6428 8.25 12.4688 8.25H8.53125C8.3572 8.25 8.19028 8.32243 8.06721 8.45136C7.94414 8.5803 7.875 8.75516 7.875 8.9375V13.0625C7.875 13.2448 7.94414 13.4197 8.06721 13.5486C8.19028 13.6776 8.3572 13.75 8.53125 13.75H12.4688C12.6428 13.75 12.8097 13.6776 12.9328 13.5486C13.0559 13.4197 13.125 13.2448 13.125 13.0625V8.9375Z" fill="#BF2B1E"/>
</svg>
