<svg width="48" height="45" viewBox="0 0 48 45" fill="none" xmlns="http://www.w3.org/2000/svg">
<path d="M42 8.4375H6C5.60218 8.4375 5.22064 8.58566 4.93934 8.84938C4.65804 9.1131 4.5 9.47079 4.5 9.84375V33.75C4.5 34.4959 4.81607 35.2113 5.37868 35.7387C5.94129 36.2662 6.70435 36.5625 7.5 36.5625H40.5C41.2957 36.5625 42.0587 36.2662 42.6213 35.7387C43.1839 35.2113 43.5 34.4959 43.5 33.75V9.84375C43.5 9.47079 43.342 9.1131 43.0607 8.84938C42.7794 8.58566 42.3978 8.4375 42 8.4375ZM18.5081 22.5L7.5 31.9588V13.0412L18.5081 22.5ZM20.7281 24.4072L22.9781 26.3496C23.2549 26.5878 23.6168 26.7199 23.9925 26.7199C24.3682 26.7199 24.7301 26.5878 25.0069 26.3496L27.2569 24.4072L38.1319 33.75H9.85687L20.7281 24.4072ZM29.4919 22.5L40.5 13.0395V31.9605L29.4919 22.5Z" fill="white"/>
</svg>
