<svg width="20" height="14" viewBox="0 0 20 14" fill="none" xmlns="http://www.w3.org/2000/svg">
<path d="M19.871 6.49938C19.231 5.38938 15.711 -0.180617 9.73104 -0.000616734C4.20104 0.139383 1.00104 4.99938 0.131045 6.49938C0.0432767 6.6514 -0.00292969 6.82385 -0.00292969 6.99938C-0.00292969 7.17492 0.0432767 7.34736 0.131045 7.49938C0.761045 8.58938 4.13105 13.9994 10.021 13.9994H10.271C15.801 13.8594 19.011 8.99938 19.871 7.49938C19.9588 7.34736 20.005 7.17492 20.005 6.99938C20.005 6.82385 19.9588 6.6514 19.871 6.49938ZM10.221 11.9994C5.91105 12.0994 3.10104 8.40938 2.22104 6.99938C3.22104 5.38938 5.83105 2.09938 9.83105 1.99938C14.121 1.88938 16.941 5.58938 17.831 6.99938C16.801 8.60938 14.221 11.8994 10.221 11.9994Z" fill="#666666"/>
<path d="M10.001 3.5C9.30874 3.5 8.63205 3.70527 8.05648 4.08986C7.48091 4.47444 7.03231 5.02107 6.7674 5.66061C6.50249 6.30015 6.43318 7.00388 6.56823 7.68282C6.70328 8.36175 7.03662 8.98539 7.5261 9.47487C8.01559 9.96436 8.63923 10.2977 9.31816 10.4327C9.9971 10.5678 10.7008 10.4985 11.3404 10.2336C11.9799 9.96867 12.5265 9.52007 12.9111 8.9445C13.2957 8.36892 13.501 7.69223 13.501 7C13.501 6.07174 13.1322 5.1815 12.4759 4.52513C11.8195 3.86875 10.9292 3.5 10.001 3.5ZM10.001 8.5C9.70431 8.5 9.4143 8.41203 9.16762 8.2472C8.92095 8.08238 8.72869 7.84811 8.61516 7.57403C8.50163 7.29994 8.47192 6.99834 8.5298 6.70736C8.58768 6.41639 8.73054 6.14912 8.94032 5.93934C9.1501 5.72956 9.41737 5.5867 9.70834 5.52882C9.99931 5.47094 10.3009 5.50065 10.575 5.61418C10.8491 5.72771 11.0834 5.91997 11.2482 6.16665C11.413 6.41332 11.501 6.70333 11.501 7C11.501 7.39782 11.3429 7.77936 11.0616 8.06066C10.7803 8.34196 10.3988 8.5 10.001 8.5Z" fill="#666666"/>
</svg>
