<svg width="24" height="24" viewBox="0 0 24 24" fill="none" xmlns="http://www.w3.org/2000/svg">
<path d="M17.8103 13.3899C19.5707 11.9438 20.7119 9.87968 21.0003 7.61985C21.0161 7.48853 21.0058 7.35539 20.9701 7.22803C20.9344 7.10068 20.874 6.9816 20.7923 6.8776C20.7106 6.77359 20.6092 6.68671 20.4939 6.62189C20.3786 6.55708 20.2517 6.51561 20.1203 6.49985C19.989 6.48409 19.8559 6.49435 19.7285 6.53005C19.6012 6.56574 19.4821 6.62617 19.3781 6.70789C19.2741 6.78961 19.1872 6.89101 19.1224 7.0063C19.0576 7.1216 19.0161 7.24853 19.0003 7.37985C18.7613 9.06613 17.9215 10.6094 16.6354 11.726C15.3494 12.8426 13.7035 13.4574 12.0003 13.4574C10.2972 13.4574 8.65129 12.8426 7.36523 11.726C6.07917 10.6094 5.23941 9.06613 5.00034 7.37985C4.98458 7.24853 4.94311 7.1216 4.8783 7.0063C4.81348 6.89101 4.72659 6.78961 4.62259 6.70789C4.51859 6.62617 4.39951 6.56574 4.27216 6.53005C4.1448 6.49435 4.01166 6.48409 3.88034 6.49985C3.74902 6.51561 3.62208 6.55708 3.50679 6.62189C3.39149 6.68671 3.29009 6.77359 3.20838 6.8776C3.12666 6.9816 3.06623 7.10068 3.03054 7.22803C2.99484 7.35539 2.98458 7.48853 3.00034 7.61985C3.28617 9.87819 4.42366 11.9421 6.18034 13.3899L3.88034 15.7099C3.71651 15.9012 3.63091 16.1472 3.64063 16.3989C3.65035 16.6506 3.75468 16.8893 3.93278 17.0674C4.11087 17.2455 4.34961 17.3498 4.60129 17.3596C4.85296 17.3693 5.09904 17.2837 5.29034 17.1199L7.90034 14.5199C8.87014 15.0099 9.9202 15.3216 11.0003 15.4398V18.9999C11.0003 19.2651 11.1057 19.5194 11.2932 19.707C11.4808 19.8945 11.7351 19.9999 12.0003 19.9999C12.2656 19.9999 12.5199 19.8945 12.7074 19.707C12.895 19.5194 13.0003 19.2651 13.0003 18.9999V15.4398C14.0805 15.3216 15.1305 15.0099 16.1003 14.5199L18.7103 17.1199C18.9016 17.2837 19.1477 17.3693 19.3994 17.3596C19.6511 17.3498 19.8898 17.2455 20.0679 17.0674C20.246 16.8893 20.3503 16.6506 20.36 16.3989C20.3698 16.1472 20.2842 15.9012 20.1203 15.7099L17.8103 13.3899Z" fill="#666666"/>
</svg>
