<svg width="22" height="23" viewBox="0 0 22 23" fill="none" xmlns="http://www.w3.org/2000/svg">
<path d="M18.5625 3.59375H3.4375C3.07283 3.59375 2.72309 3.7452 2.46523 4.01478C2.20737 4.28437 2.0625 4.65 2.0625 5.03125V17.9688C2.0625 18.35 2.20737 18.7156 2.46523 18.9852C2.72309 19.2548 3.07283 19.4062 3.4375 19.4062H18.5625C18.9272 19.4062 19.2769 19.2548 19.5348 18.9852C19.7926 18.7156 19.9375 18.35 19.9375 17.9688V5.03125C19.9375 4.65 19.7926 4.28437 19.5348 4.01478C19.2769 3.7452 18.9272 3.59375 18.5625 3.59375ZM8.73641 14.5852C8.80028 14.652 8.85095 14.7313 8.88552 14.8185C8.92009 14.9058 8.93788 14.9993 8.93788 15.0938C8.93788 15.1882 8.92009 15.2817 8.88552 15.369C8.85095 15.4562 8.80028 15.5355 8.73641 15.6023C8.67253 15.669 8.5967 15.722 8.51324 15.7582C8.42978 15.7943 8.34033 15.8129 8.25 15.8129C8.15967 15.8129 8.07022 15.7943 7.98676 15.7582C7.9033 15.722 7.82747 15.669 7.76359 15.6023L4.32609 12.0085C4.26217 11.9418 4.21146 11.8625 4.17687 11.7752C4.14227 11.688 4.12446 11.5945 4.12446 11.5C4.12446 11.4055 4.14227 11.312 4.17687 11.2248C4.21146 11.1375 4.26217 11.0582 4.32609 10.9915L7.76359 7.39773C7.8926 7.26287 8.06756 7.1871 8.25 7.1871C8.43244 7.1871 8.6074 7.26287 8.73641 7.39773C8.86541 7.5326 8.93788 7.71552 8.93788 7.90625C8.93788 8.09698 8.86541 8.2799 8.73641 8.41477L5.78445 11.5L8.73641 14.5852ZM17.6739 12.0085L14.2364 15.6023C14.1074 15.7371 13.9324 15.8129 13.75 15.8129C13.5676 15.8129 13.3926 15.7371 13.2636 15.6023C13.1346 15.4674 13.0621 15.2845 13.0621 15.0938C13.0621 14.903 13.1346 14.7201 13.2636 14.5852L16.2155 11.5L13.2636 8.41477C13.1346 8.2799 13.0621 8.09698 13.0621 7.90625C13.0621 7.71552 13.1346 7.5326 13.2636 7.39773C13.3926 7.26287 13.5676 7.1871 13.75 7.1871C13.9324 7.1871 14.1074 7.26287 14.2364 7.39773L17.6739 10.9915C17.7378 11.0582 17.7885 11.1375 17.8231 11.2248C17.8577 11.312 17.8755 11.4055 17.8755 11.5C17.8755 11.5945 17.8577 11.688 17.8231 11.7752C17.7885 11.8625 17.7378 11.9418 17.6739 12.0085Z" fill="#435CCE"/>
</svg>
