<svg width="20" height="20" viewBox="0 0 20 20" fill="none" xmlns="http://www.w3.org/2000/svg">
<path d="M15.625 3.75H10.625V1.25C10.625 1.08424 10.5592 0.925268 10.4419 0.808058C10.3247 0.690848 10.1658 0.625 10 0.625C9.83424 0.625 9.67527 0.690848 9.55806 0.808058C9.44085 0.925268 9.375 1.08424 9.375 1.25V3.75H4.375C3.71196 3.75 3.07607 4.01339 2.60723 4.48223C2.13839 4.95107 1.875 5.58696 1.875 6.25V15C1.875 15.663 2.13839 16.2989 2.60723 16.7678C3.07607 17.2366 3.71196 17.5 4.375 17.5H15.625C16.288 17.5 16.9239 17.2366 17.3928 16.7678C17.8616 16.2989 18.125 15.663 18.125 15V6.25C18.125 5.58696 17.8616 4.95107 17.3928 4.48223C16.9239 4.01339 16.288 3.75 15.625 3.75ZM13.4375 7.5C13.6229 7.5 13.8042 7.55498 13.9583 7.658C14.1125 7.76101 14.2327 7.90743 14.3036 8.07873C14.3746 8.25004 14.3932 8.43854 14.357 8.6204C14.3208 8.80225 14.2315 8.9693 14.1004 9.10041C13.9693 9.23152 13.8023 9.32081 13.6204 9.35699C13.4385 9.39316 13.25 9.37459 13.0787 9.30364C12.9074 9.23268 12.761 9.11252 12.658 8.95835C12.555 8.80418 12.5 8.62292 12.5 8.4375C12.5 8.18886 12.5988 7.9504 12.7746 7.77459C12.9504 7.59877 13.1889 7.5 13.4375 7.5ZM7.5 14.375H6.25C5.91848 14.375 5.60054 14.2433 5.36612 14.0089C5.1317 13.7745 5 13.4565 5 13.125C5 12.7935 5.1317 12.4755 5.36612 12.2411C5.60054 12.0067 5.91848 11.875 6.25 11.875H7.5V14.375ZM6.5625 9.375C6.37708 9.375 6.19582 9.32002 6.04165 9.217C5.88748 9.11399 5.76732 8.96757 5.69636 8.79627C5.62541 8.62496 5.60684 8.43646 5.64301 8.2546C5.67919 8.07275 5.76848 7.9057 5.89959 7.77459C6.0307 7.64348 6.19775 7.55419 6.3796 7.51801C6.56146 7.48184 6.74996 7.50041 6.92127 7.57136C7.09257 7.64232 7.23899 7.76248 7.342 7.91665C7.44502 8.07082 7.5 8.25208 7.5 8.4375C7.5 8.68614 7.40123 8.9246 7.22541 9.10041C7.0496 9.27623 6.81114 9.375 6.5625 9.375ZM11.25 14.375H8.75V11.875H11.25V14.375ZM13.75 14.375H12.5V11.875H13.75C14.0815 11.875 14.3995 12.0067 14.6339 12.2411C14.8683 12.4755 15 12.7935 15 13.125C15 13.4565 14.8683 13.7745 14.6339 14.0089C14.3995 14.2433 14.0815 14.375 13.75 14.375Z" fill="#FF3116"/>
</svg>
