<svg width="22" height="22" viewBox="0 0 22 22" fill="none" xmlns="http://www.w3.org/2000/svg">
<path d="M17.7942 7.62009C17.7306 7.5565 17.6662 7.49463 17.6017 7.43361L19.7364 5.29892C19.8003 5.23505 19.851 5.15922 19.8855 5.07576C19.9201 4.9923 19.9379 4.90285 19.9379 4.81252C19.9379 4.72218 19.9201 4.63273 19.8855 4.54927C19.851 4.46582 19.8003 4.38999 19.7364 4.32611C19.6725 4.26223 19.5967 4.21157 19.5132 4.177C19.4298 4.14243 19.3403 4.12463 19.25 4.12463C19.1597 4.12463 19.0702 4.14243 18.9868 4.177C18.9033 4.21157 18.8275 4.26223 18.7636 4.32611L16.5292 6.56048C14.9116 5.42184 12.9811 4.81208 11.003 4.81501C9.02485 4.81793 7.09616 5.43339 5.48196 6.57681L3.23641 4.32611C3.10741 4.19711 2.93244 4.12463 2.75 4.12463C2.56757 4.12463 2.3926 4.19711 2.2636 4.32611C2.13459 4.45511 2.06212 4.63008 2.06212 4.81252C2.06212 4.99495 2.13459 5.16992 2.2636 5.29892L4.41719 7.45252C3.45512 8.36403 2.68911 9.46224 2.16602 10.68C1.64294 11.8977 1.37378 13.2093 1.375 14.5346V16.5C1.375 16.8647 1.51987 17.2144 1.77773 17.4723C2.03559 17.7301 2.38533 17.875 2.75 17.875H19.25C19.6147 17.875 19.9644 17.7301 20.2223 17.4723C20.4801 17.2144 20.625 16.8647 20.625 16.5V14.4375C20.6285 13.1703 20.3801 11.915 19.8941 10.7446C19.4081 9.57421 18.6943 8.51212 17.7942 7.62009ZM7.90625 14.4375C7.70229 14.4375 7.50291 14.377 7.33332 14.2637C7.16373 14.1504 7.03156 13.9893 6.9535 13.8009C6.87545 13.6125 6.85503 13.4051 6.89482 13.2051C6.93461 13.005 7.03283 12.8213 7.17705 12.6771C7.32127 12.5328 7.50502 12.4346 7.70507 12.3948C7.90511 12.355 8.11246 12.3755 8.3009 12.4535C8.48933 12.5316 8.65039 12.6637 8.76371 12.8333C8.87702 13.0029 8.9375 13.2023 8.9375 13.4063C8.9375 13.6798 8.82886 13.9421 8.63546 14.1355C8.44206 14.3289 8.17976 14.4375 7.90625 14.4375ZM14.0938 14.4375C13.8898 14.4375 13.6904 14.377 13.5208 14.2637C13.3512 14.1504 13.2191 13.9893 13.141 13.8009C13.063 13.6125 13.0425 13.4051 13.0823 13.2051C13.1221 13.005 13.2203 12.8213 13.3646 12.6771C13.5088 12.5328 13.6925 12.4346 13.8926 12.3948C14.0926 12.355 14.3 12.3755 14.4884 12.4535C14.6768 12.5316 14.8379 12.6637 14.9512 12.8333C15.0645 13.0029 15.125 13.2023 15.125 13.4063C15.125 13.6798 15.0164 13.9421 14.823 14.1355C14.6296 14.3289 14.3673 14.4375 14.0938 14.4375Z" fill="#00A8A7"/>
</svg>
