<svg width="48" height="49" viewBox="0 0 48 49" fill="none" xmlns="http://www.w3.org/2000/svg">
<path d="M28.5506 7.61198C28.6016 7.42162 28.6895 7.24315 28.8094 7.08678C28.9293 6.93041 29.0789 6.7992 29.2495 6.70064C29.4201 6.60209 29.6085 6.53812 29.8039 6.5124C29.9993 6.48668 30.1978 6.4997 30.3881 6.55073C33.1689 7.27626 35.706 8.72994 37.7381 10.7621C39.7702 12.7942 41.2239 15.3312 41.9494 18.112C42.0004 18.3023 42.0134 18.5008 41.9877 18.6962C41.962 18.8916 41.898 19.08 41.7995 19.2506C41.7009 19.4213 41.5697 19.5708 41.4133 19.6907C41.257 19.8106 41.0785 19.8986 40.8881 19.9495C40.7614 19.9828 40.631 19.9998 40.5 20.0001C40.1697 20.0002 39.8486 19.8913 39.5866 19.6902C39.3245 19.4892 39.1361 19.2073 39.0506 18.8882C38.4592 16.6179 37.2729 14.5463 35.6141 12.8872C33.9553 11.2281 31.884 10.0414 29.6138 9.44948C29.4232 9.39877 29.2446 9.31098 29.088 9.19116C28.9314 9.07133 28.8 8.92181 28.7013 8.75114C28.6025 8.58048 28.5384 8.39203 28.5125 8.19656C28.4867 8.00109 28.4996 7.80244 28.5506 7.61198ZM28.1138 15.4495C30.6994 16.1395 32.3606 17.8026 33.0506 20.3882C33.1361 20.7073 33.3245 20.9892 33.5866 21.1902C33.8486 21.3913 34.1697 21.5002 34.5 21.5001C34.631 21.4998 34.7614 21.4828 34.8881 21.4495C35.0785 21.3986 35.257 21.3106 35.4133 21.1907C35.5697 21.0708 35.7009 20.9213 35.7995 20.7506C35.898 20.58 35.962 20.3916 35.9877 20.1962C36.0134 20.0008 36.0004 19.8023 35.9494 19.612C34.9894 16.0195 32.4806 13.5107 28.8881 12.5507C28.6978 12.4999 28.4993 12.487 28.304 12.5129C28.1087 12.5388 27.9204 12.6028 27.7499 12.7015C27.5793 12.8001 27.4299 12.9314 27.3101 13.0877C27.1903 13.2441 27.1024 13.4226 27.0516 13.6129C27.0007 13.8033 26.9879 14.0017 27.0137 14.197C27.0396 14.3923 27.1037 14.5806 27.2023 14.7512C27.3009 14.9217 27.4322 15.0712 27.5886 15.191C27.745 15.3108 27.9234 15.3986 28.1138 15.4495ZM41.6944 30.2114L32.8613 26.2532L32.8369 26.242C32.3783 26.0458 31.8781 25.9671 31.3815 26.013C30.8848 26.0588 30.4074 26.2277 29.9925 26.5045C29.9437 26.5368 29.8967 26.5718 29.8519 26.6095L25.2881 30.5001C22.3969 29.0957 19.4119 26.1332 18.0075 23.2795L21.9038 18.6464C21.9413 18.5995 21.9769 18.5526 22.0106 18.502C22.2814 18.0882 22.4457 17.6138 22.4889 17.1212C22.5321 16.6285 22.4528 16.1328 22.2581 15.6782V15.6557L18.2888 6.80761C18.0314 6.21373 17.5889 5.71901 17.0272 5.39731C16.4656 5.0756 15.815 4.94416 15.1725 5.02261C12.6318 5.35693 10.2997 6.60467 8.61177 8.53279C6.92381 10.4609 5.99542 12.9375 6.00002 15.5001C6.00002 30.3876 18.1125 42.5001 33 42.5001C35.5626 42.5047 38.0392 41.5763 39.9673 39.8884C41.8955 38.2004 43.1432 35.8683 43.4775 33.3276C43.5561 32.6853 43.4249 32.0349 43.1036 31.4733C42.7822 30.9117 42.2879 30.469 41.6944 30.2114Z" fill="white"/>
</svg>
