<svg width="22" height="20" viewBox="0 0 22 20" fill="none" xmlns="http://www.w3.org/2000/svg">
<path d="M6.02875 0.600003L10.4287 3V5.8C10.4287 7.56 10.1354 9.26667 9.54875 10.92C8.96208 12.6267 8.10875 14.2267 6.98875 15.72C5.86875 17.2133 4.56208 18.6 3.06875 19.88C2.58875 19.6667 2.18875 19.3733 1.86875 19C1.49542 18.68 1.20208 18.28 0.988748 17.8C2.32208 16.5733 3.38875 15.3467 4.18875 14.12C4.93542 12.8933 5.44208 11.6133 5.70875 10.28L1.62875 8.2V3L6.02875 0.600003ZM17.2287 0.600003L21.6287 3V5.8C21.6287 7.56 21.3354 9.26667 20.7487 10.92C20.1621 12.6267 19.3087 14.2267 18.1887 15.72C17.0687 17.2133 15.7621 18.6 14.2687 19.88C13.7887 19.6667 13.3887 19.3733 13.0687 19C12.6954 18.68 12.4021 18.28 12.1887 17.8C13.5221 16.5733 14.5887 15.3467 15.3887 14.12C16.1354 12.8933 16.6421 11.6133 16.9087 10.28L12.8287 8.2V3L17.2287 0.600003Z" fill="#0054A5"/>
</svg>
