<svg width="20" height="20" viewBox="0 0 20 20" fill="none" xmlns="http://www.w3.org/2000/svg">
<path d="M18.3835 6.98123L13.0179 1.61561C12.9018 1.4995 12.764 1.4074 12.6123 1.34457C12.4606 1.28173 12.2981 1.24939 12.1339 1.24939C11.9697 1.24939 11.8071 1.28173 11.6555 1.34457C11.5038 1.4074 11.366 1.4995 11.2499 1.61561L9.02803 3.83748L4.49678 5.53748C4.29088 5.6141 4.10881 5.74362 3.96892 5.91301C3.82902 6.08239 3.73623 6.28566 3.69991 6.50233L2.07725 16.2367C2.06637 16.302 2.07649 16.369 2.10616 16.4282C2.13582 16.4873 2.18349 16.5355 2.24231 16.5658C2.30112 16.5962 2.36805 16.607 2.43343 16.5969C2.49882 16.5867 2.5593 16.5561 2.60616 16.5094L7.05928 12.0562C6.91819 11.7627 6.85651 11.4373 6.88038 11.1125C6.90942 10.7129 7.06571 10.3331 7.32632 10.0288C7.58693 9.72449 7.93817 9.51166 8.32854 9.42151C8.71892 9.33136 9.12791 9.36863 9.49557 9.52784C9.86322 9.68706 10.1702 9.95986 10.3715 10.3063C10.5729 10.6527 10.6579 11.0544 10.6143 11.4527C10.5706 11.851 10.4006 12.2248 10.129 12.5193C9.85742 12.8139 9.49864 13.0137 9.10523 13.0896C8.71181 13.1654 8.30446 13.1132 7.94288 12.9406L3.48975 17.3937C3.44303 17.4406 3.41238 17.5011 3.40223 17.5665C3.39208 17.6318 3.40295 17.6988 3.43327 17.7576C3.46359 17.8164 3.5118 17.8641 3.57095 17.8937C3.6301 17.9234 3.69714 17.9335 3.76241 17.9226L13.4976 16.3C13.7139 16.2639 13.9169 16.1716 14.0863 16.0323C14.2556 15.893 14.3853 15.7115 14.4624 15.5062L16.1632 10.9695L18.3835 8.74998C18.4996 8.63391 18.5917 8.49609 18.6545 8.34442C18.7174 8.19274 18.7497 8.03017 18.7497 7.866C18.7497 7.70182 18.7174 7.53925 18.6545 7.38758C18.5917 7.2359 18.4996 7.09809 18.3835 6.98201V6.98123ZM15.6249 9.74061L10.2593 4.37498L12.1343 2.49998L17.4999 7.86561L15.6249 9.74061Z" fill="#7E03C7"/>
</svg>
